<?xml version="1.0" encoding="utf-8"?>
<!-- Generator: Adobe Illustrator 23.0.1, SVG Export Plug-In . SVG Version: 6.00 Build 0)  -->
<svg version="1.1" id="Layer_1" xmlns="http://www.w3.org/2000/svg" xmlns:xlink="http://www.w3.org/1999/xlink" x="0px" y="0px"
	 viewBox="0 0 100 100" style="enable-background:new 0 0 100 100;" xml:space="preserve">
<style type="text/css">
	.st0{fill:url(#SVGID_1_);}
</style>
<g>
	<linearGradient id="SVGID_1_" gradientUnits="userSpaceOnUse" x1="5.0983" y1="47.1372" x2="94.5462" y2="47.1372">
		<stop  offset="1.248389e-03" style="stop-color:#A6D241"/>
		<stop  offset="1" style="stop-color:#68D549"/>
	</linearGradient>
	<path class="st0" d="M9.4,20.3c10.6-22.8,25-5.4,47.8,5.2s45.3,10.5,34.7,33.3s-37.7,32.6-60.5,22S-1.3,43.1,9.4,20.3z"/>
	<g>
		<path d="M74.1,63.9c-0.6,0-1.1,0.2-1.6,0.6l-7.5,7.1l-2.2-2.2c-0.9-0.9-2.3-0.9-3.2,0c-0.9,0.9-0.9,2.3,0,3.2l3.7,3.7
			c0.9,0.9,2.2,0.9,3.1,0l9.1-8.6c0.7-0.6,0.9-1.6,0.6-2.4C75.9,64.4,75,63.9,74.1,63.9L74.1,63.9z M67.1,56.3l13.4,6.3
			c-0.4,12.3-6,19.8-13.4,23.2c-7.4-3.3-13-10.9-13.4-23.2L67.1,56.3z M34,29c1.6,1.8,4,3.3,6.9,3.3c2.9,0,5.3-1.5,6.9-3.3
			c0.3,0.2,0.9,0.4,1.1,0.6c0.5,0.5,0.6,0.9,0.6,1.2c0,0.5-1,2.8-2.8,4.4c-1.8-0.7-3.8-1.2-5.8-1.2c-2,0-4,0.4-5.8,1.2
			c-1.8-1.7-2.8-3.9-2.8-4.4c0-0.3,0.1-0.7,0.6-1.2C33.1,29.4,33.7,29.2,34,29L34,29z M34.3,23.8c-0.2,0-0.3,0.1-0.5,0.1
			c-1.6,0.6-3,1.4-4.1,2.5c-1.1,1.1-1.9,2.6-1.9,4.3c0,2.4,1.2,4.7,3.1,6.7c-2.4,1.7-4.5,3.8-6.2,6.1c-3.9,5.1-6.4,11.2-6.4,16.1
			s2.8,9.3,6.9,12.3c4.1,3,9.6,4.8,15.7,4.8c2,0,4-0.2,5.8-0.6c0.6-0.1,1.1-0.5,1.4-0.9c0.3-0.5,0.4-1.1,0.3-1.7
			c-0.1-0.6-0.5-1.1-1-1.4c-0.5-0.3-1.1-0.4-1.7-0.3c-1.6,0.3-3.2,0.5-4.9,0.5c-5.2,0-9.8-1.5-13.1-3.9c-3.2-2.4-5-5.4-5-8.7
			c0-3.3,2.1-8.9,5.5-13.4s8-7.7,12.6-7.7c4.1,0,8.1,2.5,11.4,6.2c2.8,3.2,5,7.3,6,10.8l-7.9,3.7c-0.1,0.1-0.3,0.1-0.4,0.2
			c-0.3-1.7-1.5-3.1-2.9-4.1c-1.6-1.1-3.6-1.8-5.9-2.2c-1.8-0.3-3.2-0.9-4.1-1.5s-1-1-1-1.2c0-0.1,0.1-0.5,1-1s2.2-0.9,3.8-0.9
			c2.4,0,4.3,1.1,4.7,1.6c0.3,0.5,0.8,0.9,1.4,1c0.6,0.1,1.2,0,1.7-0.3c0.5-0.3,0.9-0.9,1-1.5c0.1-0.6-0.1-1.2-0.4-1.7
			c-1.3-2-3.5-3-6.1-3.4v-1.2c0-0.6-0.2-1.2-0.6-1.6c-0.4-0.4-1-0.7-1.6-0.7c-0.6,0-1.2,0.2-1.6,0.7c-0.4,0.4-0.6,1-0.6,1.6v1.2
			c-1.4,0.2-2.7,0.7-3.8,1.3c-1.7,1-3.1,2.7-3.1,4.8c0,2.1,1.4,3.8,3,4.9c1.6,1.1,3.6,1.8,5.9,2.2c1.8,0.3,3.2,0.9,4.1,1.5
			c0.9,0.6,1,1,1,1.2c0,0.1-0.1,0.5-1,1c-0.8,0.5-2.2,0.9-3.8,0.9c-2.4,0-4.3-1.1-4.7-1.6c-0.3-0.5-0.8-0.9-1.4-1
			c-0.6-0.1-1.2,0-1.7,0.3c-0.5,0.3-0.9,0.9-1,1.5c-0.1,0.6,0.1,1.2,0.4,1.7c1.3,2,3.5,3,6.1,3.4v1.2c0,0.6,0.2,1.2,0.6,1.6
			c0.4,0.4,1,0.7,1.6,0.7s1.2-0.2,1.6-0.7c0.4-0.4,0.6-1,0.6-1.6v-1.2c1.4-0.2,2.7-0.7,3.8-1.4c0.9-0.5,1.7-1.2,2.2-2
			c0.6,14.1,7.7,23.5,17,27.3c0.5,0.2,1.1,0.2,1.7,0C77.7,86.4,85,76.3,85,61.2c0-0.9-0.5-1.6-1.3-2L68,51.9
			c-0.3-0.2-0.7-0.2-1.1-0.2c-0.3,0-0.6,0.1-0.8,0.2l-3.7,1.7c-1.3-4-3.6-8.2-6.8-11.8c-1.4-1.6-3-3.1-4.8-4.3
			c1.9-2,3.1-4.3,3.1-6.7c0-1.7-0.8-3.1-1.9-4.3C51,25.4,49.6,24.6,48,24c-1-0.4-2.2,0-2.8,1c-0.7,1.2-2.6,2.8-4.3,2.8
			c-1.7,0-3.7-1.6-4.3-2.8C36.2,24.2,35.3,23.7,34.3,23.8L34.3,23.8z"/>
	</g>
</g>
</svg>
