<?xml version="1.0" encoding="utf-8"?>
<!-- Generator: Adobe Illustrator 23.0.1, SVG Export Plug-In . SVG Version: 6.00 Build 0)  -->
<svg version="1.1" id="Layer_1" xmlns="http://www.w3.org/2000/svg" xmlns:xlink="http://www.w3.org/1999/xlink" x="0px" y="0px"
	 viewBox="0 0 100 100" style="enable-background:new 0 0 100 100;" xml:space="preserve">
<style type="text/css">
	.st0{fill:url(#SVGID_1_);}
</style>
<g>
	<linearGradient id="SVGID_1_" gradientUnits="userSpaceOnUse" x1="5.0983" y1="50.3182" x2="94.5462" y2="50.3182">
		<stop  offset="1.248389e-03" style="stop-color:#9BC2FF"/>
		<stop  offset="1" style="stop-color:#688FFF"/>
	</linearGradient>
	<path class="st0" d="M9.4,68.9c10.6,22.8,25,25.4,47.8,14.8s45.3-10.5,34.7-33.3s-37.7-47.6-60.5-37S-1.3,46.2,9.4,68.9z"/>
	<g>
		<path d="M75.1,74.2l-7-13c2.5-3.8,4-8.3,4-13.2c0-13-10.4-23.5-23.3-23.5S25.6,35,25.6,48c0,4.9,1.5,9.4,4,13.2l-7,13.1
			c-0.2,0.4-0.3,0.7-0.3,1.1c0,0.7,0.2,1.3,0.7,1.8c0.5,0.5,1.1,0.8,1.8,0.8L30,78l2.6,4.3c0.2,0.4,0.6,0.7,1,0.9
			c0.4,0.2,0.8,0.3,1.2,0.3c0.3,0,0.5,0,0.8-0.1c0.6-0.2,1.2-0.6,1.5-1.2l6-11.4c1.9,0.5,3.8,0.8,5.8,0.8c2,0,3.9-0.3,5.8-0.7
			l6,11.4c0.3,0.6,0.8,1,1.5,1.2c0.2,0.1,0.5,0.1,0.8,0.1c0.4,0,0.8-0.1,1.2-0.3c0.4-0.2,0.7-0.5,1-0.9l2.6-4.3l5.3-0.1
			c0.7,0,1.3-0.3,1.8-0.8c0.5-0.5,0.7-1.1,0.7-1.8C75.4,75,75.3,74.6,75.1,74.2z M32.9,65.1c1.6,1.6,3.5,2.9,5.5,3.9l-3.8,7.3
			l-1.9-3.1l-4.1-0.1L32.9,65.1z M48.8,66.7c-2,0-3.9-0.3-5.7-0.9c-2.4-1.4-4.1-2.4-5.2-3.2c-0.7-0.5-1.6-1.1-2.7-2
			c-3-3.3-4.8-7.7-4.8-12.6c0-10.3,8.3-18.7,18.4-18.7S67.3,37.7,67.3,48c0,4.8-1.8,9.1-4.7,12.4c-1.2,0.9-2.1,1.6-2.9,2.2
			c-1.1,0.8-2.9,1.8-5.3,3.2C52.7,66.4,50.8,66.7,48.8,66.7z M64.7,65.2l4.3,8l-4.1,0.1L63,76.3l-3.8-7.3
			C61.2,68,63.1,66.7,64.7,65.2z"/>
		<path d="M61.1,46c0.5-1.5-0.3-3.2-1.8-3.7l-5-1.7l-3.2-4.3c-0.2-0.2-0.4-0.4-0.6-0.6c-0.6-0.5-1.4-0.7-2.2-0.5
			c-0.8,0.1-1.4,0.5-1.9,1.1l-3.2,4.3l-5,1.7c-0.2,0.1-0.5,0.2-0.7,0.4c-0.6,0.4-1.1,1.1-1.2,1.9c-0.1,0.8,0,1.5,0.5,2.2l3,4.4
			l0.1,5.4c0,0.3,0,0.5,0.1,0.8c0.4,1.2,1.5,2,2.8,2c0.3,0,0.6,0,0.9-0.1l5-1.6l5,1.5c0.3,0.1,0.5,0.1,0.8,0.1
			c0.8,0,1.5-0.3,2.1-0.8c0.6-0.5,0.9-1.3,0.9-2l0.1-5.4l3-4.4C60.9,46.5,61,46.2,61.1,46z M55.3,46l-2.4,3.5l-0.1,4.2l-4-1.2
			l-4,1.2l-0.1-4.2L42.3,46l4-1.4l2.5-3.4l2.5,3.4L55.3,46z"/>
	</g>
</g>
</svg>
