<?xml version="1.0" encoding="utf-8"?>
<!-- Generator: Adobe Illustrator 23.0.1, SVG Export Plug-In . SVG Version: 6.00 Build 0)  -->
<svg version="1.1" id="Layer_1" xmlns="http://www.w3.org/2000/svg" xmlns:xlink="http://www.w3.org/1999/xlink" x="0px" y="0px"
	 viewBox="0 0 100 100" style="enable-background:new 0 0 100 100;" xml:space="preserve">
<style type="text/css">
	.st0{fill:url(#SVGID_1_);}
</style>
<g>
	<linearGradient id="SVGID_1_" gradientUnits="userSpaceOnUse" x1="5.0983" y1="49.1372" x2="94.5462" y2="49.1372">
		<stop  offset="1.248389e-03" style="stop-color:#FF8EFF"/>
		<stop  offset="1" style="stop-color:#FFBCC6"/>
	</linearGradient>
	<path class="st0" d="M90.3,75.9c-10.6,22.8-25,5.4-47.8-5.2S-2.8,60.2,7.8,37.4s37.7-32.6,60.5-22S100.9,53.2,90.3,75.9z"/>
	<g>
		<path d="M64.5,58.2c0.4,0,0.8-0.1,1.1-0.2c1.1-0.5,1.8-1.5,1.7-2.7c0-1.6-1.3-2.8-2.9-2.8c-1.2,0-2.2,0.7-2.7,1.8
			c-0.4,1.1-0.2,2.3,0.6,3.1C63.1,57.9,63.8,58.2,64.5,58.2z"/>
		<path d="M82,59.4c-0.3-3.3-2.3-5.6-5.7-6.5c-1-3.9-3-7.3-5.9-10.1l-3-10c-0.3-1.1-1.2-2-2.4-2.2c-1.1-0.3-2.3,0.1-3.1,0.9
			l-4.2,4.4c-0.1,0-0.2-0.1-0.3-0.1c-0.1-3.6-1.7-6.9-4.5-9.2c-2.8-2.4-6.5-3.4-10.2-2.7c-3.6,0.6-6.8,2.9-8.6,6.1
			c-1.8,3.1-2.1,6.7-1,10.1c-5.3,3.6-8.7,8.8-9.6,14.4c-1.4-0.2-2.6-0.9-3.5-2c-1-1.2-1.2-2.8-0.8-4.3c0.2-0.6,0.2-1.3-0.2-1.9
			c-0.3-0.6-0.8-1-1.5-1.2c-0.6-0.2-1.3-0.1-1.9,0.3c-0.6,0.3-1,0.9-1.1,1.5c-0.9,3-0.3,6.2,1.6,8.7c1.8,2.1,4.4,3.5,7.1,3.8
			c0.4,3.7,1.7,7.3,4,10.2c0.1,0.2,0.1,0.4,0.1,0.7l0,0.1c0.1,2.2,1,13.1,7.1,13.1l1.8,0c2.2,0,4-1.5,5.2-4.4
			c2.7,0.7,5.5,1.1,8.3,1.1c1.6,0,3.1-0.1,4.6-0.3c1.5,3,3.5,3.6,5,3.6h1.8c3.2,0,5.4-3,6.5-8.9c0.5-0.2,1-0.4,1.6-0.7l0.4-0.2
			c4.8-1.9,12-4.9,12-10.6L82,59.4z M61.4,78.6l-1.7,0c-0.2,0-0.7-0.6-1.3-2.3c-0.3-0.9-1.2-1.6-2.2-1.6c0,0,0,0,0,0
			c-0.2,0-0.3,0-0.5,0c-1.8,0.4-3.7,0.6-5.5,0.6c0,0-0.1,0-0.1,0c-3.1,0-6.1-0.5-8.9-1.6c-0.6-0.2-1.3-0.2-1.9,0.1
			c-0.6,0.3-1,0.8-1.2,1.5l-0.1,0.4c-0.6,2.2-1.3,2.8-1.4,2.9l-1.7,0c-0.7-0.1-2.1-3.8-2.4-8.6c0-1.1-0.3-2.1-0.9-3.1l0-0.1
			c-2.1-2.7-3.3-6-3.3-9.4c0-5.1,2.7-9.9,7.4-13.3c0.2,0.3,0.5,0.5,0.7,0.8c0,0-0.1,0-0.1,0.1c-0.9,0.5-1.4,1.6-1.1,2.7
			c0.3,1,1.2,1.8,2.3,1.8c0.4,0,0.8-0.1,1.2-0.3c3.8-2.1,8.1-3.2,12.5-3.2c1.1,0,2.2,0.1,3.3,0.2c1.2,0.1,2.2-0.6,2.5-1.7
			c0.3-0.9-0.1-1.9-0.8-2.5c0.3-0.5,0.5-1,0.7-1.5c0.4,0.1,0.8,0.2,1.2,0.3c0.9,0.3,1.8,0,2.4-0.6l3.4-3.6l2.4,8.1
			c0.1,0.4,0.4,0.8,0.7,1.1c2.7,2.5,4.6,5.8,5.2,9.5c0.2,1,1,1.9,2,2c3,0.4,3.2,1.8,3.2,2.4l0,3.4c0,2.6-6.4,5.2-9.1,6.3
			c-1.2,0.4-2.4,1-3.6,1.7c-0.5,0.4-0.9,0.9-1,1.6l0,0C62.8,77,61.7,78.4,61.4,78.6z M50.9,41.2c-3.3,0-6.6,0.6-9.7,1.6
			c-2.2-1.3-3.6-3.6-3.8-6.1l0-0.5c0.1-4.2,3.5-7.5,7.7-7.5c4.2,0,7.6,3.3,7.7,7.5C52.8,38.1,52.1,39.8,50.9,41.2z"/>
	</g>
</g>
</svg>
