<?xml version="1.0" encoding="utf-8"?>
<!-- Generator: Adobe Illustrator 23.0.1, SVG Export Plug-In . SVG Version: 6.00 Build 0)  -->
<svg version="1.1" id="Layer_1" xmlns="http://www.w3.org/2000/svg" xmlns:xlink="http://www.w3.org/1999/xlink" x="0px" y="0px"
	 viewBox="0 0 72 72" style="enable-background:new 0 0 72 72;" xml:space="preserve">
<g>
	<path d="M13.7,68c-5.7,0-9.2-3.5-9.2-9.2V19.2c0-5.1,4.1-9.2,9.2-9.2H41c0.8,0,1.5,0.7,1.5,1.5S41.8,13,41,13H13.7
		c-3.4,0-6.2,2.8-6.2,6.2v39.6c0,3.4,2.8,6.2,6.2,6.2h39.6c3.4,0,6.2-2.8,6.2-6.2V31.5c0-0.8,0.7-1.5,1.5-1.5s1.5,0.7,1.5,1.5v27.3
		c0,5.1-4.1,9.2-9.2,9.2H13.7z M32.8,53c-0.2,0-0.4-0.1-0.5-0.2c-0.1-0.1-0.2-0.3-0.2-0.5c0.1-1.7-0.3-3-1.2-3.9
		c-0.6-0.6-1.4-0.9-2.2-0.9c-1.2,0-2.5,0.6-3.6,1.9c-0.2,0.2-0.4,0.3-0.5,0.3c-0.2,0-0.4-0.1-0.5-0.2l-0.9-0.9
		c-0.1-0.1-0.2-0.3-0.2-0.5c0-0.2,0.1-0.4,0.2-0.5c1.7-1.5,2.3-3.2,1.7-4.7c-0.6-1.5-2.1-2.3-4.2-2.3c-0.2,0-0.3,0-0.5,0
		c0,0,0,0,0,0c-0.4,0-0.7-0.3-0.7-0.7v-1.4c0-0.4,0.3-0.7,0.7-0.7c0.2,0,0.3,0,0.4,0c2.1,0,3.8-0.9,4.3-2.4c0.6-1.5-0.1-3.2-1.7-4.6
		c-0.2-0.1-0.2-0.3-0.2-0.5c0-0.2,0.1-0.4,0.2-0.5l0.9-0.9c0.1-0.1,0.3-0.2,0.5-0.2c0.1,0,0.4,0,0.5,0.2c1.1,1.3,2.4,2,3.6,2
		c0.9,0,1.6-0.3,2.2-1c0.8-0.9,1.3-2.2,1.2-3.9c0-0.2,0.1-0.4,0.2-0.5c0.1-0.1,0.3-0.2,0.5-0.2h1.2c0.2,0,0.4,0.1,0.5,0.2
		c0.1,0.1,0.2,0.3,0.2,0.5c-0.1,1.1,0.3,2.2,1.1,3c0.8,0.8,1.9,1.3,3,1.3c1.2,0,2.3-0.5,3.1-1.4c0.2-0.2,0.4-0.2,0.5-0.2
		c0.2,0,0.3,0.1,0.4,0.2l0.9,0.9C44,29.7,44,29.8,44,30c0,0.2-0.1,0.4-0.2,0.5c-1.7,1.5-2.4,3.3-1.8,4.8c0.5,1.5,2.1,2.3,4.2,2.3
		c0.2,0,0.4,0,0.6,0c0,0,0,0,0,0c0.4,0,0.7,0.3,0.7,0.7v1.4c0,0.4-0.3,0.7-0.7,0.7c-0.3,0-0.4,0-0.6,0c-2,0-3.5,0.8-4.1,2.2
		c-0.6,1.5,0,3.3,1.7,4.8c0.2,0.1,0.2,0.3,0.3,0.5s-0.1,0.4-0.2,0.5l-0.9,0.9c-0.1,0.1-0.3,0.2-0.5,0.2c-0.1,0-0.3,0-0.5-0.2
		c-1.1-1.3-2.5-1.9-3.7-1.9c-0.9,0-1.7,0.3-2.3,1c-0.8,0.9-1.2,2.2-1.1,3.9c0,0.3-0.1,0.4-0.2,0.5c-0.1,0.1-0.2,0.2-0.5,0.2H32.8z
		 M33.5,32.6c-3.4,0-6.4,2.9-6.4,6.4c0,3.4,2.9,6.3,6.4,6.3c2.4,0,4.6-1.4,5.7-3.6c1.1-2.2,0.8-4.6-0.8-6.6
		c-0.6-0.8-1.3-1.4-2.2-1.8C35.4,32.9,34.5,32.6,33.5,32.6z M58.6,23c-5,0-9.1-4-9.1-9s4.1-9,9.1-9c4.9,0,8.9,4,8.9,9
		S63.5,23,58.6,23z"/>
	<path d="M58.6,6c4.4,0,7.9,3.6,7.9,8s-3.6,8-7.9,8c-4.4,0-8.1-3.6-8.1-8S54.1,6,58.6,6 M41,11c0.3,0,0.5,0.2,0.5,0.5S41.3,12,41,12
		H13.7c-4,0-7.2,3.2-7.2,7.2v39.6c0,4,3.2,7.2,7.2,7.2h39.6c4,0,7.2-3.2,7.2-7.2V31.5c0-0.3,0.2-0.5,0.5-0.5s0.5,0.2,0.5,0.5v27.3
		c0,4.5-3.7,8.2-8.2,8.2l-39.6,0c-5.1,0-8.2-3.1-8.2-8.2V19.2c0-4.5,3.7-8.2,8.2-8.2H41 M33.8,26c0,1.3,0.5,2.5,1.4,3.4
		c1,1,2.3,1.6,3.7,1.6c1.3,0,2.6-0.5,3.5-1.5l0.4,0.4c-1.8,1.7-2.5,3.8-1.8,5.7c0.7,1.9,2.6,3,5.1,3c0.1,0,0.2,0,0.3,0v0.7
		c-0.1,0-0.2,0-0.3,0c-2.4,0-4.3,1.1-5,2.9c-0.7,1.8-0.1,3.9,1.7,5.7l-0.5,0.5c-1.3-1.3-2.8-2-4.2-2c-1.1,0-2.2,0.5-3,1.3
		c-0.7,0.7-1.5,2-1.4,4.3h-0.7c0-2.3-0.8-3.6-1.5-4.3c-0.8-0.8-1.8-1.3-2.9-1.3c-1,0-2.5,0.3-4.1,2L24.1,48c1.8-1.7,2.5-3.8,1.8-5.6
		c-0.7-1.9-2.6-3-5.1-3c-0.1,0-0.2,0-0.2,0v-0.7c0,0,0.1,0,0.1,0c2.6,0,4.5-1.1,5.2-3c0.7-1.8,0-3.9-1.8-5.5l0.5-0.5
		c1.3,1.3,2.7,2.1,4.2,2.1c1.1,0,2.2-0.5,3-1.3c0.7-0.7,1.5-2,1.5-4.3H33.8 M33.5,46.3c2.8,0,5.4-1.6,6.6-4.2
		c1.2-2.5,0.9-5.3-0.9-7.6c-0.7-0.9-1.5-1.6-2.5-2.1c-1-0.5-2.1-0.8-3.2-0.8c-4,0-7.4,3.4-7.4,7.4C26.1,43,29.5,46.3,33.5,46.3
		 M42.7,29.3L42.7,29.3L42.7,29.3 M24.8,29.3L24.8,29.3L24.8,29.3 M58.6,4c-5.6,0-10.1,4.5-10.1,10s4.4,10,10.1,10
		c5.5,0,9.9-4.5,9.9-10S64.1,4,58.6,4L58.6,4z M41,9H13.7C8.1,9,3.5,13.6,3.5,19.2v39.6C3.5,65.1,7.4,69,13.7,69l0,0h39.6
		c5.6,0,10.2-4.6,10.2-10.2V31.5c0-1.4-1.1-2.5-2.5-2.5s-2.5,1.1-2.5,2.5v27.3c0,2.9-2.3,5.2-5.2,5.2H13.7c-2.9,0-5.2-2.3-5.2-5.2
		V19.2c0-2.9,2.3-5.2,5.2-5.2H41c1.4,0,2.5-1.1,2.5-2.5S42.4,9,41,9L41,9z M34.1,24h-1.2c-1,0-1.8,0.8-1.7,1.8
		c0.1,2.4-1,3.8-2.4,3.8c-0.9,0-1.9-0.5-2.9-1.6c-0.3-0.4-0.8-0.6-1.3-0.6c-0.4,0-0.9,0.2-1.2,0.5l-0.9,0.9
		c-0.7,0.7-0.7,1.9,0.1,2.5c2.8,2.4,1.7,5.3-1.9,5.3c-0.1,0-0.2,0-0.3,0l0,0c0,0-0.1,0-0.1,0c-0.9,0-1.7,0.7-1.7,1.7v1.4
		c0,0.9,0.8,1.7,1.7,1.7c0,0,0.1,0,0.1,0c0.2,0,0.3,0,0.4,0c3.5,0,4.6,2.9,1.8,5.3l0,0c-0.8,0.6-0.8,1.8-0.1,2.5l0.9,0.9
		c0.3,0.3,0.8,0.5,1.2,0.5c0.5,0,0.9-0.2,1.3-0.6c1-1.1,2-1.5,2.9-1.5c1.4,0,2.5,1.4,2.4,3.7l0,0c-0.1,1,0.7,1.8,1.7,1.8h1.4
		c1,0,1.7-0.8,1.7-1.8c-0.2-2.4,0.9-3.8,2.4-3.8c0.9,0,1.9,0.5,2.9,1.6c0.3,0.4,0.8,0.6,1.3,0.6c0.4,0,0.9-0.2,1.2-0.5l0.9-0.9
		c0.7-0.7,0.7-1.8-0.1-2.5c-2.7-2.5-1.7-5.3,1.7-5.3c0.1,0,0.3,0,0.5,0c0,0,0.1,0,0.1,0c0.9,0,1.7-0.7,1.7-1.7v-1.4
		c0-0.9-0.8-1.7-1.7-1.7c0,0-0.1,0-0.1,0c-0.2,0-0.4,0-0.5,0c-3.5,0-4.6-2.9-1.7-5.4c0.7-0.7,0.8-1.8,0.1-2.5l-0.9-0.9
		c-0.3-0.3-0.7-0.5-1.1-0.5c-0.5,0-0.9,0.2-1.2,0.6c-0.6,0.8-1.5,1.1-2.3,1.1c-1.6,0-3.2-1.3-3.1-3.3C35.9,24.8,35.1,24,34.1,24
		L34.1,24z M33.5,44.3c-2.9,0-5.4-2.4-5.4-5.3c0-2.9,2.4-5.4,5.4-5.4c0.8,0,1.6,0.2,2.4,0.6c0.7,0.3,1.3,0.9,1.8,1.5
		C40.7,39.7,37.4,44.3,33.5,44.3L33.5,44.3z"/>
</g>
</svg>
